<svg xmlns="http://www.w3.org/2000/svg" xmlns:svg="http://www.w3.org/2000/svg" id="Capa_1" width="107.112" height="107.112" x="0" y="0" enable-background="new 0 0 107.112 107.112" version="1.1" viewBox="0 0 107.112 107.112" xml:space="preserve"><metadata id="metadata43"/><g id="g6" fill="#ffe680"><path id="path2" fill="#ffe680" d="M53.556,107.112C24.025,107.112,0,83.087,0,53.556S24.025,0,53.556,0s53.556,24.025,53.556,53.556 S83.087,107.112,53.556,107.112z M53.556,0.75C24.439,0.75,0.75,24.439,0.75,53.556c0,29.118,23.689,52.806,52.806,52.806 c29.118,0,52.806-23.688,52.806-52.806C106.362,24.439,82.674,0.75,53.556,0.75z"/><path id="path4" fill="#ffe680" d="M53.556,107.112C24.025,107.112,0,83.087,0,53.556S24.025,0,53.556,0s53.556,24.025,53.556,53.556 S83.087,107.112,53.556,107.112z M53.556,0.75C24.439,0.75,0.75,24.439,0.75,53.556c0,29.118,23.689,52.806,52.806,52.806 c29.118,0,52.806-23.688,52.806-52.806C106.362,24.439,82.674,0.75,53.556,0.75z"/></g></svg>